# xmcd CD database file
#
# Track frame offsets:
#	150
#	19223
#	39395
#	54299
#	68382
#	89149
#	110798
#	140929
#	154849
#
# Disc length: 2318 seconds
#
# Revision: 5
# Processed by: cddbd v1.5.2PL0 Copyright (c) Steve Scherf et al.
# Submitted via: CDex 1.70beta3
#
DISCID=7c090c09
DTITLE=Various Artist - OKUDA TAMIO COVERS DISC2
DYEAR=2007
DGENRE=Rock
TTITLE0=ウルフルズ　トロフィー～ヘヘヘイ
TTITLE1=PUFFY　健康
TTITLE2=ザ・コレクターズ　花になる
TTITLE3=detroit7　月を超えろ
TTITLE4=SPARKS GO GO　ルート２
TTITLE5=HALCALI　愛のために
TTITLE6=THEATRE BROOK　これは歌だ
TTITLE7=DEPAPEPE　サウンド・オブ・ミュージック
TTITLE8=井上陽水　The STANDARD
EXTD=YEAR: 2007
EXTT0=
EXTT1=
EXTT2=
EXTT3=
EXTT4=
EXTT5=
EXTT6=
EXTT7=
EXTT8=
PLAYORDER=
